<svg id="Layer_1" data-name="Layer 1" xmlns="http://www.w3.org/2000/svg" viewBox="0 0 148.83 61.94"><defs><style>.cls-1{fill:#231f20;}.cls-2{font-size:19px;font-family:Lato-Regular, Lato;}.cls-2,.cls-5{fill:#fff;}.cls-3{letter-spacing:-0.04em;}.cls-4{letter-spacing:-0.04em;}</style></defs><path class="cls-1" d="M5.94,15C14.28,3.15,29,1.52,39.09.41,50.5-.84,61.73,1.07,67.21,2,76.5,3.59,79.52,5.2,87.9,5.45c6.24.19,6.22-.65,19.63-1.85,19-1.71,24-.47,28.12,1.59a23.59,23.59,0,0,1,8.22,6.36c7.29,9.14,5.48,22.7,1.33,31.3-.55,1.13-7.34,14.67-21.76,18.31-14.6,3.68-20.72-6.91-45.62-6.9a121.31,121.31,0,0,0-16.71,1.33c-18.24,2.43-21.23,6.11-31,5.57-3.61-.2-17.87-1-25.47-11.67C-2.69,39.22-.62,24.32,5.94,15Z" transform="translate(0)"/><text class="cls-2" transform="translate(8.83 37.42)">CASE STU<tspan class="cls-3" x="87.2" y="0">D</tspan><tspan class="cls-4" x="100.91" y="0">Y</tspan></text><path class="cls-5" d="M139.35,31.73l-6.85,6.91a1.12,1.12,0,0,1-1.59,0,1.11,1.11,0,0,1,0-1.58L137,31l-6.11-6.07a1.12,1.12,0,0,1,1.58-1.59l6.91,6.86a1.11,1.11,0,0,1,0,1.58" transform="translate(0)"/></svg>