<svg id="Layer_1" data-name="Layer 1" xmlns="http://www.w3.org/2000/svg" viewBox="0 0 177.66 61.94"><defs><style>.cls-1{fill:#231f20;}.cls-2{fill:#fff;}</style></defs><path class="cls-1" d="M7.09,15C17.05,3.15,34.66,1.52,46.67.41,60.29-.84,73.7,1.07,80.23,2c11.09,1.58,14.7,3.19,24.7,3.44,7.45.19,7.43-.65,23.44-1.85,22.68-1.71,28.67-.47,33.56,1.59a28.29,28.29,0,0,1,9.82,6.36c8.7,9.14,6.54,22.7,1.58,31.3a41.1,41.1,0,0,1-26,18.31c-17.43,3.68-24.73-6.91-54.46-6.9a172.42,172.42,0,0,0-20,1.33C51.18,58,47.6,61.7,35.9,61.16c-4.3-.2-21.33-1-30.39-11.67C-3.21,39.22-.74,24.32,7.09,15Z"/><path class="cls-2" d="M34,34.61a.34.34,0,0,1,.26.12l.73.79a5.66,5.66,0,0,1-2,1.51,6.92,6.92,0,0,1-2.88.54,6.75,6.75,0,0,1-2.66-.51,5.68,5.68,0,0,1-2-1.42A6.28,6.28,0,0,1,24,33.44a8.22,8.22,0,0,1-.47-2.82,7.73,7.73,0,0,1,.49-2.82,6.37,6.37,0,0,1,1.36-2.21,6.27,6.27,0,0,1,2.1-1.43,7,7,0,0,1,2.71-.5,6.62,6.62,0,0,1,2.57.46,6.41,6.41,0,0,1,2,1.26l-.6.85a.57.57,0,0,1-.15.16.43.43,0,0,1-.24.06.7.7,0,0,1-.42-.19,7,7,0,0,0-.65-.41,4.93,4.93,0,0,0-2.47-.6,4.88,4.88,0,0,0-1.93.37,4.07,4.07,0,0,0-1.5,1.06,4.93,4.93,0,0,0-1,1.69,6.81,6.81,0,0,0-.35,2.25,6.43,6.43,0,0,0,.37,2.27,5,5,0,0,0,1,1.69,4.25,4.25,0,0,0,1.49,1.05,4.74,4.74,0,0,0,1.86.36,7.14,7.14,0,0,0,1.09-.08,4,4,0,0,0,.9-.22,3.68,3.68,0,0,0,.77-.38,5.12,5.12,0,0,0,.71-.56A.53.53,0,0,1,34,34.61Z"/><path class="cls-2" d="M48.16,37.42H46.73a.63.63,0,0,1-.4-.12.74.74,0,0,1-.22-.32L44.83,33.7H38.72L37.45,37a.66.66,0,0,1-.22.31.6.6,0,0,1-.4.13H35.41l5.44-13.61h1.86Zm-3.84-5.05-2.14-5.54c-.06-.17-.13-.36-.2-.58s-.13-.45-.2-.69a9.74,9.74,0,0,1-.41,1.28l-2.13,5.53Z"/><path class="cls-2" d="M56.92,25.94a.78.78,0,0,1-.19.21.4.4,0,0,1-.24.07.64.64,0,0,1-.38-.16c-.15-.11-.33-.23-.55-.36a3.89,3.89,0,0,0-.79-.35,3.86,3.86,0,0,0-2.2,0,2.33,2.33,0,0,0-.79.45,2,2,0,0,0-.48.67,2.12,2.12,0,0,0-.16.83,1.53,1.53,0,0,0,.28.95,2.45,2.45,0,0,0,.74.64,5.63,5.63,0,0,0,1.05.46l1.19.4c.41.14.81.3,1.2.47a4.67,4.67,0,0,1,1,.66,3.29,3.29,0,0,1,.74,1,3.37,3.37,0,0,1,.28,1.43A4.52,4.52,0,0,1,57.36,35a3.87,3.87,0,0,1-.89,1.36,4.17,4.17,0,0,1-1.43.91,5.31,5.31,0,0,1-1.93.33,5.94,5.94,0,0,1-2.42-.48,5.7,5.7,0,0,1-1.85-1.29l.53-.88a.61.61,0,0,1,.19-.17.4.4,0,0,1,.24-.07.5.5,0,0,1,.28.1,4,4,0,0,1,.36.25l.45.33a3.64,3.64,0,0,0,.59.33,3.57,3.57,0,0,0,.74.25,3.93,3.93,0,0,0,.94.1,3.51,3.51,0,0,0,1.17-.18,2.5,2.5,0,0,0,.87-.51,2.17,2.17,0,0,0,.55-.78,2.73,2.73,0,0,0,.19-1,1.77,1.77,0,0,0-.28-1,2.37,2.37,0,0,0-.74-.66,5.25,5.25,0,0,0-1-.45l-1.2-.38a12.32,12.32,0,0,1-1.2-.45,3.84,3.84,0,0,1-1-.66,3.12,3.12,0,0,1-.74-1,3.92,3.92,0,0,1,0-2.91,3.62,3.62,0,0,1,.82-1.2A4.18,4.18,0,0,1,51.84,24a4.78,4.78,0,0,1,1.8-.31,5.69,5.69,0,0,1,2.07.36,4.87,4.87,0,0,1,1.65,1Z"/><path class="cls-2" d="M68.66,35.92v1.5H60.26V23.81h8.39v1.5H62.1v4.52h5.3v1.44H62.1v4.65Z"/><path class="cls-2" d="M83.06,25.94a.78.78,0,0,1-.19.21.36.36,0,0,1-.24.07.66.66,0,0,1-.38-.16,5,5,0,0,0-.54-.36,3.89,3.89,0,0,0-.79-.35,3.9,3.9,0,0,0-2.21,0,2.29,2.29,0,0,0-.78.45,1.73,1.73,0,0,0-.48.67,2.12,2.12,0,0,0-.17.83,1.6,1.6,0,0,0,.28.95,2.49,2.49,0,0,0,.75.64,5.26,5.26,0,0,0,1,.46l1.2.4c.41.14.8.3,1.19.47a4.67,4.67,0,0,1,1.05.66,3.13,3.13,0,0,1,.74,1,3.23,3.23,0,0,1,.28,1.43,4.72,4.72,0,0,1-.3,1.68,4,4,0,0,1-.89,1.36,4.22,4.22,0,0,1-1.44.91,5.28,5.28,0,0,1-1.93.33,5.86,5.86,0,0,1-2.41-.48A5.7,5.7,0,0,1,75,35.8l.53-.88a.58.58,0,0,1,.18-.17.44.44,0,0,1,.24-.07.53.53,0,0,1,.29.1,4.06,4.06,0,0,1,.35.25l.46.33a3.53,3.53,0,0,0,.58.33,3.66,3.66,0,0,0,.75.25,3.87,3.87,0,0,0,.94.1,3.55,3.55,0,0,0,1.17-.18,2.5,2.5,0,0,0,.87-.51,2.14,2.14,0,0,0,.54-.78,2.54,2.54,0,0,0,.19-1,1.7,1.7,0,0,0-.28-1,2.45,2.45,0,0,0-.73-.66,5.62,5.62,0,0,0-1-.45l-1.2-.38c-.4-.13-.8-.28-1.19-.45a3.89,3.89,0,0,1-1-.66,3.1,3.1,0,0,1-.73-1,3.53,3.53,0,0,1-.29-1.51,3.58,3.58,0,0,1,.29-1.4,3.44,3.44,0,0,1,.81-1.2A4.18,4.18,0,0,1,78,24a4.82,4.82,0,0,1,1.8-.31,5.79,5.79,0,0,1,2.08.36,5.07,5.07,0,0,1,1.65,1Z"/><path class="cls-2" d="M95.61,25.36H91.2V37.42H89.37V25.36H85V23.81H95.61Z"/><path class="cls-2" d="M102.88,36a3.8,3.8,0,0,0,1.51-.29,3,3,0,0,0,1.12-.8,3.44,3.44,0,0,0,.71-1.22,4.92,4.92,0,0,0,.24-1.57V23.81h1.83v8.27a6.22,6.22,0,0,1-.37,2.19A5,5,0,0,1,106.84,36a4.74,4.74,0,0,1-1.7,1.15,6.29,6.29,0,0,1-4.52,0A4.87,4.87,0,0,1,98.91,36a5,5,0,0,1-1.08-1.74,6.22,6.22,0,0,1-.38-2.19V23.81h1.84v8.26a4.92,4.92,0,0,0,.24,1.57,3.55,3.55,0,0,0,.7,1.23,3.27,3.27,0,0,0,1.13.8A3.85,3.85,0,0,0,102.88,36Z"/><path class="cls-2" d="M123.4,30.62a7.48,7.48,0,0,1-.49,2.78,6.14,6.14,0,0,1-1.37,2.15,6,6,0,0,1-2.12,1.38,7.3,7.3,0,0,1-2.74.49H111.6V23.81h5.08a7.3,7.3,0,0,1,2.74.49,5.82,5.82,0,0,1,2.12,1.38,6.18,6.18,0,0,1,1.37,2.16A7.48,7.48,0,0,1,123.4,30.62Zm-1.89,0a7,7,0,0,0-.34-2.24,4.8,4.8,0,0,0-1-1.67,4.15,4.15,0,0,0-1.52-1.05,5.32,5.32,0,0,0-2-.36h-3.24V35.93h3.24a5.32,5.32,0,0,0,2-.36,4.25,4.25,0,0,0,1.52-1,4.8,4.8,0,0,0,1-1.67A7,7,0,0,0,121.51,30.62Z"/><path class="cls-2" d="M130.42,32v5.42h-1.84V32l-5-8.19h1.61a.57.57,0,0,1,.39.12,1.05,1.05,0,0,1,.25.3l3.12,5.3c.11.22.21.43.31.62s.18.39.25.58a4.66,4.66,0,0,1,.23-.58l.3-.62,3.1-5.3a1.28,1.28,0,0,1,.24-.29.56.56,0,0,1,.39-.13h1.63Z"/><path class="cls-2" d="M153.18,31.73l-6.85,6.91a1.12,1.12,0,0,1-1.59,0,1.11,1.11,0,0,1,0-1.58L150.8,31l-6.11-6.07a1.12,1.12,0,0,1,1.58-1.59l6.91,6.86a1.11,1.11,0,0,1,0,1.58"/></svg>