<svg id="Layer_1" data-name="Layer 1" xmlns="http://www.w3.org/2000/svg" viewBox="0 0 206.53 100.83"><defs><style>.cls-1{fill:#231f20;}.cls-2{fill:#fff;}.cls-3{fill:none;stroke:#fff;stroke-linecap:round;stroke-miterlimit:10;stroke-width:2px;}</style></defs><path class="cls-1" d="M9.32,30.12c10-10.71,20.28-2.78,45.1-10.72C69.25,14.65,68,11,82.07,5.61c6-2.3,40.31-15.55,72.33,2.55,11.95,6.76,6,7.93,34.89,31.67,9.3,7.63,15.75,12.3,17,20.94,1.42,9.66-4.33,19.81-9.79,25.53-13.56,14.24-29.89,6-83,3.58-21.21-1-31.82-1.44-40.42,0-25.22,4.2-34.56,14-49.35,7.66A41,41,0,0,1,1.66,71C-2.08,57.09.51,39.57,9.32,30.12Z" transform="translate(0 1.22)"/><path class="cls-2" d="M42.61,46.27a.81.81,0,0,1-.2.21.41.41,0,0,1-.27.08.76.76,0,0,1-.41-.16c-.15-.1-.34-.22-.56-.34a4.46,4.46,0,0,0-.81-.35,4,4,0,0,0-1.18-.15,3.86,3.86,0,0,0-1.65.33,3.19,3.19,0,0,0-1.2,1,4.29,4.29,0,0,0-.72,1.52,7.94,7.94,0,0,0,0,4,4.39,4.39,0,0,0,.74,1.5,3.22,3.22,0,0,0,1.16.92,3.64,3.64,0,0,0,1.53.32,3.92,3.92,0,0,0,1.34-.19,4.4,4.4,0,0,0,.87-.43,6.83,6.83,0,0,0,.57-.44.79.79,0,0,1,.46-.19.5.5,0,0,1,.43.21l.62.82a4.3,4.3,0,0,1-.94.87,6.12,6.12,0,0,1-1.13.61,6,6,0,0,1-1.27.35,7.53,7.53,0,0,1-1.35.12,5.54,5.54,0,0,1-2.2-.44,5.06,5.06,0,0,1-1.77-1.27,6.08,6.08,0,0,1-1.18-2,9.14,9.14,0,0,1,0-5.38,6,6,0,0,1,1.15-2.07,5.25,5.25,0,0,1,1.86-1.35A6.2,6.2,0,0,1,39,43.82a5.9,5.9,0,0,1,2.35.43,5.56,5.56,0,0,1,1.81,1.22Z" transform="translate(0 1.22)"/><path class="cls-2" d="M45.41,45.81a7.3,7.3,0,0,1,2.27-1.52,7,7,0,0,1,2.68-.5,4.86,4.86,0,0,1,1.89.35,4,4,0,0,1,1.39,1,4.21,4.21,0,0,1,.85,1.51,6.33,6.33,0,0,1,.29,1.95v8.1h-1a.86.86,0,0,1-.5-.11.73.73,0,0,1-.28-.41L52.76,55c-.33.3-.66.58-1,.81a5.41,5.41,0,0,1-1,.6,5.09,5.09,0,0,1-1.12.38,6,6,0,0,1-1.32.13A4.54,4.54,0,0,1,47,56.67a3.16,3.16,0,0,1-1.13-.61A3,3,0,0,1,45.07,55a3.6,3.6,0,0,1-.28-1.49,2.87,2.87,0,0,1,.41-1.45,3.67,3.67,0,0,1,1.34-1.23A9,9,0,0,1,49,50a18.12,18.12,0,0,1,3.65-.39v-1A3.35,3.35,0,0,0,52,46.35a2.3,2.3,0,0,0-1.86-.76,3.93,3.93,0,0,0-1.38.21,5.37,5.37,0,0,0-1,.46l-.7.46a1,1,0,0,1-.58.21.65.65,0,0,1-.39-.12,1.28,1.28,0,0,1-.28-.29ZM52.6,51a19.61,19.61,0,0,0-2.62.24,7.32,7.32,0,0,0-1.76.51,2.57,2.57,0,0,0-1,.74,1.6,1.6,0,0,0-.3,1,2.06,2.06,0,0,0,.16.86,1.55,1.55,0,0,0,.44.59,1.73,1.73,0,0,0,.66.34,3.12,3.12,0,0,0,.82.11,4.58,4.58,0,0,0,1.08-.12,4.23,4.23,0,0,0,.92-.34,5.27,5.27,0,0,0,.82-.54,8.4,8.4,0,0,0,.77-.71Z" transform="translate(0 1.22)"/><path class="cls-2" d="M65.54,46.11a.5.5,0,0,1-.46.27.8.8,0,0,1-.43-.14l-.58-.3a5,5,0,0,0-.82-.32,4.13,4.13,0,0,0-1.12-.14,3.54,3.54,0,0,0-1,.14,2.55,2.55,0,0,0-.77.4,1.75,1.75,0,0,0-.48.58,1.47,1.47,0,0,0-.17.72,1.19,1.19,0,0,0,.28.81,2.26,2.26,0,0,0,.74.56,6.38,6.38,0,0,0,1,.42L63,49.5c.41.14.81.29,1.21.46a4.22,4.22,0,0,1,1,.62,3,3,0,0,1,.74.92,2.79,2.79,0,0,1,.28,1.31,4.05,4.05,0,0,1-.31,1.61A3.5,3.5,0,0,1,65,55.71a4.57,4.57,0,0,1-1.5.86,6.1,6.1,0,0,1-2,.31,6.37,6.37,0,0,1-2.4-.43,6.2,6.2,0,0,1-1.82-1.11l.52-.85a.82.82,0,0,1,.24-.25.72.72,0,0,1,.35-.08.83.83,0,0,1,.48.17,6.32,6.32,0,0,0,.6.39,5.11,5.11,0,0,0,.87.39,4.22,4.22,0,0,0,1.28.17,3.49,3.49,0,0,0,1.13-.17,2.39,2.39,0,0,0,.82-.45A2.07,2.07,0,0,0,64,54a2.11,2.11,0,0,0,.15-.8,1.32,1.32,0,0,0-.28-.87,2.45,2.45,0,0,0-.74-.58,5.45,5.45,0,0,0-1.06-.43l-1.21-.38a10.38,10.38,0,0,1-1.21-.46,4.16,4.16,0,0,1-1.06-.64,2.81,2.81,0,0,1-.74-1,3,3,0,0,1-.28-1.38,3.38,3.38,0,0,1,.3-1.39,3.45,3.45,0,0,1,.87-1.18,4.37,4.37,0,0,1,1.41-.8,5.69,5.69,0,0,1,1.92-.3,6.08,6.08,0,0,1,2.24.39A5.52,5.52,0,0,1,66,45.29Z" transform="translate(0 1.22)"/><path class="cls-2" d="M79.26,54.91a4.07,4.07,0,0,1-1,.86,6.21,6.21,0,0,1-1.24.61,7.67,7.67,0,0,1-1.35.36,8.24,8.24,0,0,1-1.39.12,6.39,6.39,0,0,1-2.42-.45A5.24,5.24,0,0,1,70,55.11,5.86,5.86,0,0,1,68.71,53a8.57,8.57,0,0,1-.45-2.9,7.36,7.36,0,0,1,.41-2.47,5.86,5.86,0,0,1,1.17-2A5.43,5.43,0,0,1,71.7,44.3a6.13,6.13,0,0,1,2.48-.48,5.76,5.76,0,0,1,2.1.38A4.67,4.67,0,0,1,78,45.3a5,5,0,0,1,1.1,1.77,6.73,6.73,0,0,1,.4,2.41,1.41,1.41,0,0,1-.11.7.46.46,0,0,1-.42.18H70.46a7.75,7.75,0,0,0,.33,2.08,4.13,4.13,0,0,0,.82,1.48,3.23,3.23,0,0,0,1.25.89,4.26,4.26,0,0,0,1.63.3,4.68,4.68,0,0,0,1.44-.2,7.16,7.16,0,0,0,1-.42c.29-.15.53-.29.73-.42a1,1,0,0,1,.5-.19.49.49,0,0,1,.43.21ZM77.46,49a4.27,4.27,0,0,0-.22-1.42,3,3,0,0,0-.63-1.11,2.77,2.77,0,0,0-1-.73,3.9,3.9,0,0,0-3.9.68A4.36,4.36,0,0,0,70.54,49Z" transform="translate(0 1.22)"/><path class="cls-2" d="M96,46.11a.49.49,0,0,1-.46.27.77.77,0,0,1-.42-.14l-.59-.3a4.88,4.88,0,0,0-.81-.32,4.2,4.2,0,0,0-1.13-.14,3.52,3.52,0,0,0-1,.14,2.44,2.44,0,0,0-.77.4,1.79,1.79,0,0,0-.49.58,1.59,1.59,0,0,0-.17.72,1.24,1.24,0,0,0,.28.81,2.3,2.3,0,0,0,.75.56,6.38,6.38,0,0,0,1,.42l1.2.39c.42.14.82.29,1.21.46a4.22,4.22,0,0,1,1.05.62,2.77,2.77,0,0,1,1,2.23,4.06,4.06,0,0,1-.32,1.61,3.47,3.47,0,0,1-.92,1.29,4.57,4.57,0,0,1-1.5.86,6.14,6.14,0,0,1-2,.31,6.33,6.33,0,0,1-2.4-.43,6.13,6.13,0,0,1-1.83-1.11l.53-.85a.72.72,0,0,1,.24-.25.7.7,0,0,1,.35-.08.8.8,0,0,1,.47.17c.17.12.37.25.61.39a4.48,4.48,0,0,0,.87.39,4.15,4.15,0,0,0,1.27.17,3.6,3.6,0,0,0,1.14-.17,2.43,2.43,0,0,0,.81-.45,1.81,1.81,0,0,0,.48-.67,1.94,1.94,0,0,0,.16-.8,1.37,1.37,0,0,0-.28-.87,2.5,2.5,0,0,0-.75-.58,5.34,5.34,0,0,0-1-.43l-1.22-.38a11.12,11.12,0,0,1-1.21-.46,4.1,4.1,0,0,1-1-.64,3,3,0,0,1-.75-1A3,3,0,0,1,88,47.49a3.41,3.41,0,0,1,1.18-2.57,4.37,4.37,0,0,1,1.41-.8,5.63,5.63,0,0,1,1.91-.3,6.08,6.08,0,0,1,2.24.39,5.3,5.3,0,0,1,1.72,1.08Z" transform="translate(0 1.22)"/><path class="cls-2" d="M103.3,56.88A3.06,3.06,0,0,1,101,56a3.35,3.35,0,0,1-.8-2.41V45.88H98.66a.48.48,0,0,1-.33-.12.44.44,0,0,1-.14-.37v-.88l2.07-.27.52-3.91a.58.58,0,0,1,.16-.31.56.56,0,0,1,.35-.11h1.12v4.36h3.67v1.61h-3.67v7.6a1.62,1.62,0,0,0,.39,1.19,1.35,1.35,0,0,0,1,.39,1.85,1.85,0,0,0,.61-.1,2.61,2.61,0,0,0,.44-.2l.32-.21a.42.42,0,0,1,.23-.09.37.37,0,0,1,.31.21l.65,1.06a4,4,0,0,1-1.38.84A4.63,4.63,0,0,1,103.3,56.88Z" transform="translate(0 1.22)"/><path class="cls-2" d="M118.79,44V56.68h-1.33a.57.57,0,0,1-.6-.46l-.17-1.36a7.14,7.14,0,0,1-1.85,1.46,4.78,4.78,0,0,1-2.35.56,4.56,4.56,0,0,1-1.83-.34,3.53,3.53,0,0,1-1.33-1,4.14,4.14,0,0,1-.81-1.51,6.8,6.8,0,0,1-.27-2V44h2.23v8.07a3.39,3.39,0,0,0,.65,2.23,2.49,2.49,0,0,0,2,.79,3.79,3.79,0,0,0,1.84-.47,6,6,0,0,0,1.58-1.3V44Z" transform="translate(0 1.22)"/><path class="cls-2" d="M132.79,38.27V56.68h-1.33a.57.57,0,0,1-.6-.46l-.2-1.54a6.76,6.76,0,0,1-1.85,1.58,4.7,4.7,0,0,1-2.4.6,4.55,4.55,0,0,1-2-.42,4.07,4.07,0,0,1-1.51-1.23,6,6,0,0,1-1-2,10.68,10.68,0,0,1-.33-2.79,8.69,8.69,0,0,1,.37-2.6,6.42,6.42,0,0,1,1.08-2.1,5,5,0,0,1,1.71-1.39,5.08,5.08,0,0,1,2.3-.51,4.5,4.5,0,0,1,2,.4,4.62,4.62,0,0,1,1.48,1.09v-7ZM130.56,47a3.48,3.48,0,0,0-1.35-1.17,3.84,3.84,0,0,0-1.62-.33,3.18,3.18,0,0,0-2.71,1.26,5.87,5.87,0,0,0-.95,3.6,9.26,9.26,0,0,0,.21,2.12,4.12,4.12,0,0,0,.62,1.45,2.46,2.46,0,0,0,1,.83,3.27,3.27,0,0,0,1.36.27,3.66,3.66,0,0,0,1.92-.5,5.7,5.7,0,0,0,1.5-1.42Z" transform="translate(0 1.22)"/><path class="cls-2" d="M147.24,44l-7.06,16.4a1.12,1.12,0,0,1-.29.4.74.74,0,0,1-.51.15h-1.65l2.31-5L134.81,44h1.93a.69.69,0,0,1,.45.14.8.8,0,0,1,.24.32l3.38,8a7.43,7.43,0,0,1,.34,1.1c.12-.4.24-.77.38-1.12l3.28-8a.75.75,0,0,1,.26-.33.67.67,0,0,1,.41-.13Z" transform="translate(0 1.22)"/><path class="cls-2" d="M171.68,50.69l-6,6.06a1,1,0,0,1-1.39-1.39L169.6,50l-5.36-5.31a1,1,0,0,1,0-1.39,1,1,0,0,1,1.38,0l6.06,6a1,1,0,0,1,0,1.39" transform="translate(0 1.22)"/><line class="cls-3" x1="153.89" y1="51.24" x2="169.61" y2="51.24"/></svg>