<?xml version="1.0" encoding="utf-8"?>
<!-- Generator: Adobe Illustrator 25.0.0, SVG Export Plug-In . SVG Version: 6.00 Build 0)  -->
<svg version="1.1" id="Layer_1" xmlns="http://www.w3.org/2000/svg" xmlns:xlink="http://www.w3.org/1999/xlink" x="0px" y="0px"
	 viewBox="0 0 189.58 67.98" style="enable-background:new 0 0 189.58 67.98;" xml:space="preserve">
<style type="text/css">
	.st0{fill:#ED6B96;}
</style>
<g>
	<g>
		<path class="st0" d="M32.97,37.98c0.33,3.65,1.1,8.84,2.32,15.59c0.06,0.45,0.31,1.06,0.73,1.84c0.43,0.77,0.66,1.34,0.71,1.7
			c0.13,0.91-0.52,1.78-1.95,2.63c-0.29,0.18-0.68,0.3-1.17,0.37c-1.47,0.21-3.09,0.02-4.85-0.57c-2.09-0.68-3.23-1.67-3.42-2.98
			c-0.08-0.59,0.02-1.39,0.31-2.4c0.29-1.01,0.57-1.99,0.85-2.96l-1.63-11.67l-8.69,3.15c0.31,2.22,0.77,5.34,1.38,9.36
			c0.61,4.02,0.91,6.05,0.92,6.1c0.08,0.54,0.34,1.36,0.79,2.45c0.45,1.09,0.71,1.89,0.78,2.38c0.13,0.9-0.07,1.68-0.59,2.33
			c-0.52,0.65-1.3,1.05-2.32,1.19c-1.07,0.15-2.2,0.01-3.4-0.42c-1.2-0.43-2.03-0.93-2.49-1.49c-0.46-0.56-0.72-0.97-0.75-1.24
			c-0.01-0.09,0.1-0.59,0.34-1.5c-0.27-1.94-0.74-5.11-1.4-9.49c-0.66-4.38-1.07-7.19-1.24-8.41c-0.06-0.13-0.73-1.03-2.01-2.69
			c-0.77-0.95-1.13-1.89-1.08-2.82c0.02-0.51,0.23-0.95,0.63-1.33c0.4-0.38,0.8-0.76,1.2-1.14C5.28,25.2,4.31,17.91,4,14.08
			c-0.51-0.76-0.81-1.39-0.88-1.88c-0.14-0.99,0.43-1.93,1.72-2.8c0.54-0.35,1.35-0.6,2.42-0.75c3.48-0.49,5.72,0.17,6.75,1.96
			c0.18,0.34,0.3,0.67,0.34,0.99c0.09,0.63-0.17,1.63-0.78,2.98c-0.61,1.35-0.85,2.44-0.74,3.25c0.74,7.28,1.45,12.67,2.12,16.17
			c4.26-1.38,7.07-2.37,8.44-2.98c-1.17-5.46-2.03-11.94-2.58-19.43c-0.56-1.07-0.89-1.97-0.99-2.7c-0.19-1.36,0.48-2.58,2.01-3.67
			c0.33-0.23,0.83-0.39,1.5-0.49c1.56-0.22,3.13-0.04,4.71,0.52c1.82,0.67,2.85,1.7,3.09,3.1c0.13,0.63-0.15,1.47-0.84,2.54
			c-0.69,1.07-0.99,1.96-0.89,2.68c0.82,6.53,1.63,12,2.43,16.41c0.79,0.49,1.64,1.25,2.53,2.28c0.89,1.03,1.39,1.91,1.49,2.63
			c0.1,0.72-0.2,1.32-0.91,1.79C34.26,37.14,33.59,37.57,32.97,37.98z"/>
	</g>
	<g>
		<path class="st0" d="M64.78,22.74c0.18,0.67,0.15,1.41-0.1,2.23c-0.3,1.1-0.46,1.91-0.48,2.42c1.32,9.41,1.85,16,1.61,19.77
			c-0.57,7.92-3.53,12.26-8.88,13.01c-7.8,1.09-12.71-5.58-14.72-20.02c-0.54-3.89-0.83-8.05-0.86-12.47c-0.46-1-0.74-1.9-0.86-2.72
			c-0.18-1.31,0.09-2.48,0.81-3.5c0.6-0.87,1.6-1.4,2.98-1.59c1.11-0.16,2.19-0.06,3.24,0.27c1.05,0.34,1.7,0.81,1.97,1.42
			c0.13,0.3,0.22,0.62,0.27,0.93c0.08,0.59-0.03,1.56-0.34,2.92c-0.31,1.36-0.36,2.44-0.16,3.24c-0.09,2.6,0.13,5.82,0.67,9.66
			c0.54,3.89,1.24,7.09,2.09,9.6c1.04,2.9,2.12,4.27,3.23,4.11c1.87-0.26,2.65-3.65,2.33-10.15c-0.14-3.26-0.7-8.39-1.68-15.4
			c-0.06-0.45-0.22-1.1-0.48-1.94c-0.25-0.84-0.41-1.47-0.47-1.87c-0.15-1.09,0.14-1.89,0.89-2.41c0.41-0.29,1.02-0.49,1.82-0.6
			c1.47-0.21,2.87-0.08,4.21,0.38C63.45,20.6,64.42,21.5,64.78,22.74z"/>
	</g>
	<g>
		<path class="st0" d="M119.47,48.86c-0.35,1.75-1.54,2.78-3.59,3.06c-2.59,0.36-4.63-0.28-6.13-1.91
			c-0.81-0.9-1.62-4.27-2.44-10.11c-0.12-0.86-0.29-2.06-0.5-3.6c-0.18-1.59-0.31-2.7-0.4-3.33c-0.44-3.17-0.83-4.77-1.15-4.82
			c-0.71-0.18-2.09,6.47-4.16,19.96c0.01,0.05,0.07,1.14,0.19,3.3c0.09,1.32-0.23,2.27-0.97,2.83c-0.54,0.4-1.16,0.65-1.87,0.75
			c-1.29,0.18-2.6-0.08-3.92-0.77c-1.32-0.69-2.22-1.6-2.7-2.74c-0.68-1.61-1.34-4.89-1.99-9.82c-0.92-7.21-1.36-10.67-1.32-10.4
			c-0.31-1.89-0.58-2.85-0.81-2.86c-0.79,1.86-1.45,3.64-1.98,5.33c-1.3,4.06-1.9,7.37-1.81,9.94c-0.15,0.57-0.02,1.64,0.38,3.2
			c0.37,1.33,0.3,2.29-0.21,2.87c-0.51,0.58-1.26,0.94-2.23,1.07c-1.07,0.15-2.19,0-3.37-0.46c-1.18-0.46-2.07-1.04-2.66-1.74
			c-0.87-1.03-1.73-4.28-2.59-9.74c-0.75-5.34-1.49-10.68-2.24-16.02c-0.11-0.45-0.38-1.06-0.8-1.83c-0.43-0.77-0.67-1.36-0.72-1.77
			c-0.06-0.41,0-0.81,0.17-1.2c0.45-0.99,1.86-1.64,4.22-1.97c2.9-0.4,4.74,0.08,5.52,1.44c0.18,0.3,0.29,0.61,0.33,0.92
			c0.06,0.41-0.07,1.03-0.39,1.85c-0.32,0.83-0.44,1.49-0.37,1.99l1.08,7.74c0.94-3.04,2.19-6.9,3.76-11.6
			c0.19-0.63,0.36-1.25,0.52-1.87c0.16-0.62,0.46-1.19,0.88-1.71c0.43-0.52,1.22-0.86,2.38-1.03c1.78-0.25,3.63-0.09,5.55,0.47
			c1.92,0.56,2.98,1.41,3.18,2.53c0.21,1.17,0.17,2.09-0.13,2.75c-0.29,0.66-0.41,1.2-0.35,1.61l1.92,14.68
			c0.48-1.73,1.24-5.75,2.26-12.08c0.83-4.82,1.58-7.56,2.26-8.21c0.88-0.86,2.28-1.42,4.19-1.69c3.56-0.5,5.56,0.28,5.99,2.35
			c0.73,5.53,2.02,14.76,3.87,27.69c0.07,0.5,0.6,1.04,1.59,1.61c0.99,0.58,1.54,1.25,1.64,2.02
			C119.61,47.9,119.58,48.34,119.47,48.86z"/>
	</g>
	<g>
		<path class="st0" d="M153.16,41.25c-0.36,2.31-1.85,3.65-4.48,4.02c-0.89,0.12-1.63,0.06-2.21-0.18c-0.78-0.4-1.41-1.33-1.89-2.78
			c-0.89-2.5-1.71-4.44-2.45-5.82c0.21,2.51-0.77,5.22-2.95,8.13c-2.18,2.91-4.57,4.55-7.15,4.91c-3.25,0.45-5.81-1.43-7.67-5.64
			c-0.67-1.57-1.11-3.07-1.31-4.52c-0.59-4.21,1.03-8.1,4.84-11.68c3.19-2.57,6.39-5.12,9.63-7.64c0.07-0.79,0.06-1.55-0.05-2.28
			c-0.2-1.4-0.69-2.18-1.48-2.32c-0.79-0.14-1.46-0.18-1.99-0.1c-0.94,0.13-1.66,0.54-2.18,1.24c-0.52,0.7-1,1.35-1.46,1.97
			c-0.48,0.44-1.06,1.37-1.72,2.8c-0.52,1.13-1.18,1.8-1.97,2c-1.14,0.3-2.24,0.04-3.31-0.78c-1.07-0.82-1.69-1.86-1.87-3.13
			c-0.1-0.72-0.02-1.4,0.26-2.04c0.78-1.86,2.11-3.57,3.99-5.12c2.85-2.34,6.62-3.83,11.3-4.49c2.98-0.42,5.24,0.75,6.76,3.48
			c0.98,1.85,2.03,5.41,3.13,10.7c1.31,6.41,2.46,11.07,3.45,13.98c0.17,0.58,0.65,1.27,1.45,2.08c0.79,0.81,1.24,1.56,1.33,2.24
			C153.21,40.6,153.21,40.92,153.16,41.25z M139.2,26.18c-1.24,0.91-2.46,1.84-3.66,2.8c-1.21,0.95-2.28,2.14-3.22,3.56
			c-1.34,2.08-1.93,3.78-1.74,5.09c0.15,1.09,0.71,2.16,1.68,3.23c0.53,0.57,1.07,0.82,1.6,0.74c1.16-0.16,2.23-1.65,3.23-4.46
			C138.07,34.32,138.78,30.67,139.2,26.18z"/>
	</g>
	<g>
		<path class="st0" d="M188.58,34.78c0.05,1.01-0.48,1.95-1.58,2.82c-1.11,0.87-2.39,1.41-3.86,1.61c-2.18,0.31-3.78-0.19-4.77-1.48
			c-1.59-13.99-2.98-20.99-4.16-21.01c-1.14-0.02-2.99,6.6-5.54,19.87c0.19,1.36,0.38,2.72,0.57,4.07c0.18,1.64-0.09,2.85-0.82,3.64
			c-0.73,0.79-1.56,1.26-2.5,1.39c-1.6,0.22-3.44-0.42-5.52-1.93c-0.6-0.38-1.37-3.78-2.31-10.2c0.59,3.93-0.4-3.38-3-21.93
			c-0.06-0.41-0.18-0.95-0.37-1.64c-0.19-0.69-0.3-1.19-0.35-1.51c-0.12-0.86,0-1.64,0.36-2.33c0.42-0.89,1.21-1.41,2.37-1.58
			c1.2-0.17,2.51,0.03,3.93,0.59c1.42,0.56,2.31,1.16,2.67,1.81c0.24,0.43,0.39,0.87,0.46,1.32c0.06,0.45-0.03,1.11-0.27,1.98
			c-0.24,0.86-0.33,1.57-0.25,2.11l1.31,9.37c1.96-6.46,3.52-10.76,4.67-12.9c2.07-3.7,4.73-5.67,7.97-5.89
			c1.93-0.13,3.55,1.49,4.84,4.86c0.99,2.54,1.87,6.38,2.63,11.53c0.57,4.07,1.14,8.15,1.71,12.22c0.13,0.3,0.52,0.83,1.17,1.57
			C188.32,33.54,188.53,34.09,188.58,34.78z"/>
	</g>
</g>
</svg>
