<svg id="Layer_1" data-name="Layer 1" xmlns="http://www.w3.org/2000/svg" viewBox="0 0 185.48 63.6"><defs><style>.cls-1{fill:#fff82e;}</style></defs><path class="cls-1" d="M33,38c.32,3.65,1.1,8.85,2.31,15.6A6,6,0,0,0,36,55.41a5.93,5.93,0,0,1,.71,1.7c.13.91-.52,1.78-1.95,2.62a2.88,2.88,0,0,1-1.17.38,10.83,10.83,0,0,1-4.85-.57q-3.15-1-3.42-3a6.17,6.17,0,0,1,.31-2.4c.29-1,.58-2,.85-3L24.87,39.53l-8.69,3.15Q16.64,46,17.55,52t.92,6.1a11.67,11.67,0,0,0,.79,2.45A11.53,11.53,0,0,1,20,63a3,3,0,0,1-.6,2.34,3.45,3.45,0,0,1-2.32,1.18,7.08,7.08,0,0,1-3.4-.42,5.81,5.81,0,0,1-2.49-1.49,3.13,3.13,0,0,1-.75-1.24,11.18,11.18,0,0,1,.33-1.5c-.27-1.94-.73-5.11-1.39-9.49s-1.07-7.19-1.25-8.41c-.06-.13-.73-1-2-2.69a4.1,4.1,0,0,1-1.07-2.83,1.88,1.88,0,0,1,.63-1.33L6.92,36Q4.46,19.82,4,14.08a5,5,0,0,1-.88-1.89c-.14-1,.44-1.93,1.72-2.8a6.17,6.17,0,0,1,2.42-.75c3.48-.49,5.73.17,6.75,2a3.07,3.07,0,0,1,.34,1,6.26,6.26,0,0,1-.77,3,6.24,6.24,0,0,0-.74,3.25Q14,28.74,15,34c4.26-1.38,7.08-2.38,8.45-3a141.64,141.64,0,0,1-2.58-19.43,8.86,8.86,0,0,1-1-2.7q-.29-2,2-3.67a3.56,3.56,0,0,1,1.5-.49,9.82,9.82,0,0,1,4.71.52q2.73,1,3.09,3.1a3.73,3.73,0,0,1-.84,2.54,4.15,4.15,0,0,0-.88,2.68q1.23,9.8,2.43,16.41a11.2,11.2,0,0,1,2.53,2.27,5.65,5.65,0,0,1,1.49,2.63A1.76,1.76,0,0,1,35,36.67Z" transform="translate(-3.1 -2.95)"/><path class="cls-1" d="M64.78,22.74a4,4,0,0,1-.1,2.23,12.25,12.25,0,0,0-.48,2.42q2,14.11,1.6,19.77-.85,11.9-8.88,13-11.7,1.63-14.72-20a93.82,93.82,0,0,1-.86-12.47A10,10,0,0,1,40.48,25a4.74,4.74,0,0,1,.81-3.5,4.09,4.09,0,0,1,3-1.59,7.1,7.1,0,0,1,3.24.27,3,3,0,0,1,2,1.42,3.81,3.81,0,0,1,.27.93,9.62,9.62,0,0,1-.34,2.92,7.13,7.13,0,0,0-.17,3.24,58.2,58.2,0,0,0,.67,9.66A53.39,53.39,0,0,0,52,47.92q1.56,4.35,3.23,4.11,2.81-.39,2.33-10.15-.21-4.89-1.68-15.4a13.63,13.63,0,0,0-.47-1.94A13.51,13.51,0,0,1,55,22.66a2.3,2.3,0,0,1,.89-2.4,4.3,4.3,0,0,1,1.82-.61,9.19,9.19,0,0,1,4.22.38A4.22,4.22,0,0,1,64.78,22.74Z" transform="translate(-3.1 -2.95)"/><path class="cls-1" d="M119.47,48.86q-.51,2.64-3.59,3.07A6.58,6.58,0,0,1,109.75,50q-1.22-1.35-2.44-10.11l-.5-3.6c-.18-1.59-.31-2.7-.4-3.33-.44-3.17-.82-4.78-1.15-4.83q-1-.25-4.16,20s.07,1.15.19,3.3a3.05,3.05,0,0,1-1,2.83,4,4,0,0,1-1.87.75,6.42,6.42,0,0,1-3.92-.77,5.47,5.47,0,0,1-2.7-2.74q-1-2.41-2-9.82-1.38-10.81-1.32-10.4c-.31-1.9-.58-2.85-.81-2.87-.78,1.87-1.44,3.64-2,5.33a30.9,30.9,0,0,0-1.81,9.94,7.66,7.66,0,0,0,.38,3.2c.37,1.33.29,2.29-.21,2.87a3.47,3.47,0,0,1-2.24,1.07,6.64,6.64,0,0,1-3.37-.46,6.55,6.55,0,0,1-2.66-1.74q-1.3-1.55-2.59-9.74L71,22.84a8.53,8.53,0,0,0-.8-1.82,5.47,5.47,0,0,1-.72-1.77,2.17,2.17,0,0,1,.17-1.2c.45-1,1.86-1.64,4.22-2q4.35-.61,5.52,1.44a2.32,2.32,0,0,1,.33.92,4.06,4.06,0,0,1-.39,1.85,4.35,4.35,0,0,0-.37,2L80,30q1.39-4.56,3.76-11.6c.18-.62.36-1.25.52-1.87a4.39,4.39,0,0,1,.89-1.71,3.55,3.55,0,0,1,2.37-1,13.19,13.19,0,0,1,5.56.47c1.91.56,3,1.41,3.18,2.53a4.93,4.93,0,0,1-.13,2.75,3.14,3.14,0,0,0-.35,1.61l1.91,14.68q.73-2.6,2.27-12.08,1.23-7.23,2.26-8.21a7.31,7.31,0,0,1,4.19-1.69c3.56-.5,5.56.28,6,2.35q1.1,8.28,3.87,27.69c.07.5.6,1,1.59,1.61a2.94,2.94,0,0,1,1.65,2A3.91,3.91,0,0,1,119.47,48.86Z" transform="translate(-3.1 -2.95)"/><path class="cls-1" d="M153.16,41.25q-.54,3.47-4.48,4a4.3,4.3,0,0,1-2.21-.18,4.5,4.5,0,0,1-1.88-2.78,45,45,0,0,0-2.45-5.82q.31,3.76-2.95,8.13T132,49.53c-3.25.46-5.81-1.43-7.67-5.64a17.71,17.71,0,0,1-1.31-4.52q-.89-6.32,4.84-11.68,4.79-3.86,9.63-7.64a10.14,10.14,0,0,0,0-2.28c-.2-1.4-.69-2.18-1.49-2.32a6.37,6.37,0,0,0-2-.1,3.09,3.09,0,0,0-2.17,1.24l-1.47,2a9.35,9.35,0,0,0-1.72,2.8,3.22,3.22,0,0,1-2,2,3.69,3.69,0,0,1-3.31-.78,4.64,4.64,0,0,1-1.87-3.13,3.81,3.81,0,0,1,.26-2,13.57,13.57,0,0,1,4-5.13A22.35,22.35,0,0,1,137,7.8a6.18,6.18,0,0,1,6.75,3.48q1.49,2.78,3.14,10.7a121.16,121.16,0,0,0,3.45,14A5.49,5.49,0,0,0,151.83,38a4.29,4.29,0,0,1,1.33,2.24A3.15,3.15,0,0,1,153.16,41.25Zm-14-15.07q-1.86,1.37-3.67,2.79a15.2,15.2,0,0,0-3.21,3.57c-1.35,2.08-1.93,3.77-1.75,5.09a6.22,6.22,0,0,0,1.68,3.22,1.86,1.86,0,0,0,1.61.74c1.15-.16,2.23-1.64,3.22-4.46A46.84,46.84,0,0,0,139.2,26.18Z" transform="translate(-3.1 -2.95)"/><path class="cls-1" d="M188.58,34.78A3.42,3.42,0,0,1,187,37.59a7.88,7.88,0,0,1-3.87,1.61q-3.27.46-4.77-1.47-2.38-21-4.16-21t-5.54,19.87l.57,4.07a4.49,4.49,0,0,1-.82,3.65,4.12,4.12,0,0,1-2.5,1.38q-2.4.35-5.51-1.92-.9-.57-2.31-10.2.89,5.9-3-21.93a13.76,13.76,0,0,0-.37-1.64,15.25,15.25,0,0,1-.35-1.51,3.84,3.84,0,0,1,.36-2.34,2.83,2.83,0,0,1,2.37-1.57,7.74,7.74,0,0,1,3.93.59A5.18,5.18,0,0,1,163.7,7a3.7,3.7,0,0,1,.46,1.33,5.35,5.35,0,0,1-.27,2,5.55,5.55,0,0,0-.25,2.11L165,21.75q2.94-9.69,4.67-12.9,3.1-5.56,8-5.89c1.93-.13,3.55,1.49,4.84,4.86a56.65,56.65,0,0,1,2.63,11.53l1.71,12.22a7.83,7.83,0,0,0,1.17,1.56A2.62,2.62,0,0,1,188.58,34.78Z" transform="translate(-3.1 -2.95)"/></svg>