<svg id="Layer_1" data-name="Layer 1" xmlns="http://www.w3.org/2000/svg" viewBox="0 0 279.64 99.86"><defs><style>.cls-1{fill:#383838;}.cls-2{fill:#f0f;}</style></defs><path d="M92.76,49.1h15.69V77.43c0,4.33,1.7,7.52,6.46,7.52s6.67-3.19,6.67-7.52V49.1h15.69V77.43c0,14.84-10.15,22.43-22.72,22.43S92.76,92.27,92.76,77.43Z"/><path d="M161.91,99.86c-11.57,0-19.17-6.17-19.88-14.34h15.12c.36,2.42,2.28,3.48,4.69,3.48,1.63,0,2.63-.85,2.63-1.85,0-5.25-20.66-.42-20.66-15.12,0-7.24,5.75-13.2,17-13.2s17,6.46,18.17,14.34H165c-.42-2.13-2-3.41-4.54-3.41-1.56,0-2.48.64-2.48,1.85,0,5,20.94.35,20.94,15.76C179,94.47,172.56,99.86,161.91,99.86Z"/><path d="M203.52,99.86c-12,0-20.45-7.74-20.45-20.52s8.45-20.51,20.45-20.51S224,66.42,224,79a23.36,23.36,0,0,1-.21,3.12H198.47c.22,4,2.13,5.19,4.27,5.19A3.82,3.82,0,0,0,206.43,85h16.68C221.41,93.47,213.6,99.86,203.52,99.86Zm-4.9-24.63H208c0-2.77-2.13-4-4.47-4A4.51,4.51,0,0,0,198.62,75.23Z"/><path d="M244.7,99.37H228.93V59.32H244.7v7.39c3.12-4.48,8-7.67,13.13-7.67V75.87h-4.47c-5.68,0-8.66,1.63-8.66,7.1Z"/><path class="cls-1" d="M275.68,69.26c-17.63-1.32-34.07,2.07-50.84,4.62a173.92,173.92,0,0,1-25.43,2.25c-9.39,0-18.83-.83-28.23-1.15A143.7,143.7,0,0,0,145,76.11c-8.22,1.24-16.39,3.22-25,3.12-16.25-.17-32.42-6.45-48-1.46-5.16,1.65-1.35,7.94,3.83,6.27,14.6-4.68,32,2.26,47.46,1.87,8-.21,15.58-1.94,23.29-3.11a141.16,141.16,0,0,1,27.48-1c17.36.78,33.83,1.52,50.74-1,16.45-2.43,32.82-6.2,50.09-4.91C280.65,76.34,281.47,69.69,275.68,69.26Z"/><path class="cls-2" d="M39.53,42.63c1.27,6.44,4,12.55,5,19.89a2.53,2.53,0,0,1-3.7,1.53c-3.59-5.89-4-12.94-5.94-19.37-6.92,1.25-10.65,4.51-16,5.24a9.93,9.93,0,0,1-5.47-.61c-1.5.9-1.88,1-1.63,3.23,1.47,3.91,2.25,9.65,2.9,13.3A2.5,2.5,0,0,1,12.07,68a3.22,3.22,0,0,1-2.54-1.53c-2.32-8.87-4.21-18.1-6.82-26.35C1.85,39.45.17,31,.06,29.64s-.23-2.75.92-3.41,2,.07,2.61.75c.94,1.11,1.48,2.76,2.22,3.8.38,1.86,3.65,13.85,5.26,14.95a27.46,27.46,0,0,1,4.63-1.18c5.05-.87,13.27-2.42,18-4.87.29-1.87-3.37-15.15-4-17.06a.89.89,0,0,1-.48-1.27c.51-1,1.92-1.26,3-1.23.39,0,.71.28,1.19.88,1.39,2.19,5,12,5.59,17.11,1.48.26,3.71-2.78,3.85-.59C42.92,40.29,41,41.36,39.53,42.63Z"/><path class="cls-2" d="M93.83,53.36c-2,1.55-3.63,2.67-5.88,3-6.11.93-8.13-4.14-11.59-8.52-2.46,6.53-6.8,13.34-14.22,14.48C50.87,64.06,48.69,53,47.43,44.69a118,118,0,0,1-1.67-14.06c0-.95,1.26-1.83,2.2-2,1.66-.45,2.61.75,2.87,2.44.94,6.11.77,28.91,10.35,27.45,7.23-1.11,13.16-11.34,12.11-18.19-.93-6.11-1.72-5.6-2.37-11.75-.16-1,.94-2.07,2.16-2.25a2.31,2.31,0,0,1,.76,0c3.28,1.32,2.5,4.42,3.39,7.07.55,1.74,0,1,.23,2.75,1,6.77,3.52,13.59,9.83,17.15C89.5,54.6,94.37,51.26,94,49l.66-.1a1,1,0,0,1,.38.61A7.7,7.7,0,0,1,93.83,53.36Z"/><path class="cls-2" d="M149.52,46.77c-1,.54-3.23.21-3.48-1.39-.47-3.1.79-6.17.3-9.37-1.28-8.35-9.17-18.49-18.47-17.07-2.91.45-7.68,2.52-10.09,8.75.86,1.89,1.12,1.08,1.54,3.81.53,3.47,2.53,6.53,2.62,10.26,0,2.11.16,7.28-1.64,8.71-3.29.5-2.89-3.79-4.33-5.68l-.19-1.22c-.58-3.18-.41-6.47-.9-9.67-1-6.85-7.17-12.35-14.41-11.25-4.6.7-5.44,4-4.81,8.14,1.18,7.7,2.42,15.19,4,22.73-.16.79-1.09,1-1.61,1.4-4.48.2-3.25-5.56-5.36-8,.25-5.33-1.6-10.52-1.36-15.84-.87-2.56-2.31-5-2.71-7.66-.17-1.13-.11-3.25,1.39-3.48s3,1.37,3.56,2.53a13.91,13.91,0,0,1,6.74-3.72c6-.92,11.61,2.45,15.29,7,2.29-4.48,4.76-9.09,12.37-10.25,9.86-1.51,13.28,2,18.27,8.93,2.43,3.28,4,9.29,4.69,13.7C151.26,39.88,151.77,45.76,149.52,46.77Z"/><path class="cls-2" d="M198.73,40.5c-1.79.27-4.52.6-6.44,0-2.31-.7-8.35-6.89-9.33-8.85-2.06,2.23-2.93,6.59-5,8.16a34.74,34.74,0,0,1-12.25,5.33c-3.48.53-8.46-1.3-10.17-4.3a16.84,16.84,0,0,1-1.62-5,29.06,29.06,0,0,1,3.16-17.68c2.62-4.82,5.71-9.14,11.44-10,1.69-.25,3.69-.37,4.91.7a16.15,16.15,0,0,0,4.69,3,6.42,6.42,0,0,0,3.09.1c1.11,2.23,1.33,4.89,1.7,7.33a29.49,29.49,0,0,0,9.16,16.57,5.19,5.19,0,0,0,5,1.84,12.48,12.48,0,0,0,5.84-2.05c.62-.38,1.17-1.81,1.87-1.63C204.52,36.25,201.08,40.14,198.73,40.5ZM176.3,17.6c-2.2-1.78-3.77-4.52-6.73-5a15.86,15.86,0,0,0-8.66,8.72c-1.75,4.31-3.45,7.64-2.76,12.15.4,2.63,1.21,5.39,3.44,6.78,1.07.7,2.45.3,3.67.11,9.39-1.43,15-7.09,13.38-16.84A21,21,0,0,1,176.3,17.6Z"/><path class="cls-2" d="M235.64,33.61l.15.36c.13.85-.91,1.58-1.66,1.7-1,.16-1.51-1-2.46-1a2,2,0,0,1-.21-.74c-.3-2,1.33-2.61.27-4.56l.43-.93a4.83,4.83,0,0,0-.08-1.14c-.7-4.6-2.6-8.83-4.59-13-.41-.8-5-10.58-14.09-9.19-8.17,1.25-11,6.4-9.83,14.29.49,3.19,2.86,8,4.18,11a3.17,3.17,0,0,0-.13,1.65c.19,1.22.74,2.29.92,3.51a2.38,2.38,0,0,1-2.27,2.75c-.94.14-1.74-.69-2.56-1a8,8,0,0,1-2.14-4.57c-.36-2.35-1.46-6.41-1.81-8.66a10.51,10.51,0,0,0-1.38-4,5,5,0,0,0-.09-1.24c-.3-2-1.42-3.62-1.74-5.69-.1-.66-2.12-2.56-2.36-4.16a2.36,2.36,0,0,1,.49-1.8,3,3,0,0,1,.93-.24c3.66-.56,2.61,3.93,4.29,3.57,1.41-5.21,6-7.83,10.5-9.29,15.72-5.29,19.26,9.07,23.46,17.08a23.29,23.29,0,0,1,2.23,7.06l.45,3.58A6.55,6.55,0,0,1,235.64,33.61Z"/></svg>