<?xml version="1.0" encoding="utf-8"?>
<!-- Generator: Adobe Illustrator 25.0.0, SVG Export Plug-In . SVG Version: 6.00 Build 0)  -->
<svg version="1.1"
	 id="svg1468" xmlns:cc="http://web.resource.org/cc/" xmlns:dc="http://purl.org/dc/elements/1.1/" xmlns:inkscape="http://www.inkscape.org/namespaces/inkscape" xmlns:ns1="http://sozi.baierouge.fr" xmlns:rdf="http://www.w3.org/1999/02/22-rdf-syntax-ns#" xmlns:sodipodi="http://inkscape.sourceforge.net/DTD/sodipodi-0.dtd" xmlns:svg="http://www.w3.org/2000/svg"
	 xmlns="http://www.w3.org/2000/svg" xmlns:xlink="http://www.w3.org/1999/xlink" x="0px" y="0px" viewBox="0 0 141.59 49"
	 style="enable-background:new 0 0 141.59 49;" xml:space="preserve">
<style type="text/css">
	.st0{fill:none;stroke:#000000;stroke-width:3.7492;stroke-miterlimit:3.3326;}
	.st1{fill:none;stroke:#000000;stroke-width:1.9145;stroke-miterlimit:3.3326;}
	.st2{fill:none;stroke:#000000;stroke-width:5.2073;stroke-miterlimit:3.3326;}
	.st3{fill:none;stroke:#000000;stroke-width:2.2912;stroke-miterlimit:3.3326;}
	.st4{stroke:#000000;stroke-width:2.75;stroke-linecap:round;stroke-linejoin:round;}
</style>
<sodipodi:namedview  bordercolor="#666666" borderopacity="1.0" id="base" inkscape:current-layer="svg1468" inkscape:cx="93.750000" inkscape:cy="93.750000" inkscape:pageopacity="0.0" inkscape:pageshadow="2" inkscape:window-height="480" inkscape:window-width="640" inkscape:zoom="1.8346667" pagecolor="#ffffff">
	</sodipodi:namedview>
<g id="layer1">
	<g id="g2668" transform="matrix(.83316 0 0 .83316 420 -144.85)">
		<path id="path2656" class="st0" d="M-353.37,180.54l-123.87,22.3l-17.95,15.18l21.03,7.57l124.86-22.47c0,0,11.36-1.81,9.26-13.32
			C-342.04,178.97-352.84,180.46-353.37,180.54L-353.37,180.54z"/>
		<path id="path2658" class="st1" d="M-469.43,223.95c0,0-4.98-1.06-5.47-4.09c-0.49-3.04,2.93-6.13,2.93-6.13s-4.24-0.56-4.24-3.26
			c-0.01-2.71,0.21-4.12,2.16-5.5c1.96-1.38,1.99-2.51,1.99-2.51"/>
		<path id="path2662" class="st2" d="M-492.57,217.17l6.16-0.63"/>
		<path id="path2664" class="st3" d="M-471.81,214.04c6.06-1.08,129.84-22.4,129.84-22.4"/>
		<path id="path2666" class="st4" d="M-340.45,194.07c-0.69,4.45-3.15,6.08-5.49,3.63s-3.68-8.04-2.99-12.5s3.15-6.08,5.49-3.63
			C-341.1,184.02-339.76,189.61-340.45,194.07z"/>
	</g>
</g>
</svg>
